<mxfile host="app.diagrams.net" modified="2024-03-06T08:52:48.789Z" agent="Mozilla/5.0 (X11; Linux x86_64; rv:109.0) Gecko/20100101 Firefox/115.0" etag="2mPx4EqZN1XNL16JP23I" version="24.0.1" type="device">
  <diagram name="Page-1" id="c7558073-3199-34d8-9f00-42111426c3f3">
    <mxGraphModel dx="1687" dy="931" grid="1" gridSize="10" guides="1" tooltips="1" connect="1" arrows="1" fold="1" page="1" pageScale="1" pageWidth="826" pageHeight="1169" background="none" math="0" shadow="0">
      <root>
        <mxCell id="0" />
        <mxCell id="1" parent="0" />
        <mxCell id="2" value="&lt;p style=&quot;margin: 0px; margin-top: 4px; text-align: center; text-decoration: underline;&quot;&gt;&lt;strong&gt;Agriculteur 1&lt;br&gt;&lt;/strong&gt;&lt;/p&gt;&lt;hr&gt;&lt;div&gt;LoraWan Gateway&lt;/div&gt;&lt;div&gt;EU868&lt;br&gt;&lt;/div&gt;" style="verticalAlign=middle;align=center;overflow=fill;fontSize=12;fontFamily=Helvetica;html=1;rounded=1;fontStyle=1;strokeWidth=3;fillColor=#E6FFCC" parent="1" vertex="1">
          <mxGeometry x="221" y="331" width="110" height="159" as="geometry" />
        </mxCell>
        <mxCell id="4" value="Capteur in situ 1" style="whiteSpace=wrap;align=center;verticalAlign=middle;fontStyle=1;strokeWidth=3;fillColor=#FFFFCC" parent="1" vertex="1">
          <mxGeometry x="40" y="251" width="90" height="60" as="geometry" />
        </mxCell>
        <mxCell id="5" value="ChirpStack GW Bridge&#xa;EU 868&#xa;" style="shape=process;whiteSpace=wrap;align=center;verticalAlign=middle;size=0.0475;fontStyle=1;strokeWidth=3;fillColor=#FFCCCC" parent="1" vertex="1">
          <mxGeometry x="600" y="351" width="200" height="50" as="geometry" />
        </mxCell>
        <mxCell id="37" value="" style="edgeStyle=none;noEdgeStyle=1;strokeColor=#026799;strokeWidth=2" parent="1" source="4" target="2" edge="1">
          <mxGeometry width="100" height="100" relative="1" as="geometry">
            <mxPoint x="280" y="190" as="sourcePoint" />
            <mxPoint x="380" y="90" as="targetPoint" />
          </mxGeometry>
        </mxCell>
        <mxCell id="vn03d7-LU0J96A6AL0O_-97" value="Capteur in situ 2" style="whiteSpace=wrap;align=center;verticalAlign=middle;fontStyle=1;strokeWidth=3;fillColor=#FFFFCC" vertex="1" parent="1">
          <mxGeometry x="40" y="340" width="90" height="60" as="geometry" />
        </mxCell>
        <mxCell id="vn03d7-LU0J96A6AL0O_-98" value="Capteur in situ 3" style="whiteSpace=wrap;align=center;verticalAlign=middle;fontStyle=1;strokeWidth=3;fillColor=#FFFFCC" vertex="1" parent="1">
          <mxGeometry x="40" y="421" width="90" height="60" as="geometry" />
        </mxCell>
        <mxCell id="vn03d7-LU0J96A6AL0O_-99" value="" style="edgeStyle=none;noEdgeStyle=1;strokeColor=#026799;strokeWidth=2;exitX=1;exitY=0.5;exitDx=0;exitDy=0;" edge="1" parent="1" source="vn03d7-LU0J96A6AL0O_-97" target="2">
          <mxGeometry width="100" height="100" relative="1" as="geometry">
            <mxPoint x="140" y="307" as="sourcePoint" />
            <mxPoint x="240" y="350" as="targetPoint" />
          </mxGeometry>
        </mxCell>
        <mxCell id="vn03d7-LU0J96A6AL0O_-100" value="" style="edgeStyle=none;noEdgeStyle=1;strokeColor=#026799;strokeWidth=2;exitX=1;exitY=0.5;exitDx=0;exitDy=0;entryX=0;entryY=0.5;entryDx=0;entryDy=0;" edge="1" parent="1" source="vn03d7-LU0J96A6AL0O_-98" target="2">
          <mxGeometry width="100" height="100" relative="1" as="geometry">
            <mxPoint x="145" y="441" as="sourcePoint" />
            <mxPoint x="261" y="481" as="targetPoint" />
          </mxGeometry>
        </mxCell>
        <mxCell id="vn03d7-LU0J96A6AL0O_-102" value="&lt;p style=&quot;margin: 0px; margin-top: 4px; text-align: center; text-decoration: underline;&quot;&gt;&lt;strong&gt;Agriculteur 2&lt;br&gt;&lt;/strong&gt;&lt;/p&gt;&lt;hr&gt;&lt;div&gt;LoraWan Gateway&lt;/div&gt;&lt;div&gt;IN865&lt;br&gt;&lt;/div&gt;" style="verticalAlign=middle;align=center;overflow=fill;fontSize=12;fontFamily=Helvetica;html=1;rounded=1;fontStyle=1;strokeWidth=3;fillColor=#E6FFCC" vertex="1" parent="1">
          <mxGeometry x="221" y="610" width="110" height="160" as="geometry" />
        </mxCell>
        <mxCell id="vn03d7-LU0J96A6AL0O_-103" value="Capteur in situ 1" style="whiteSpace=wrap;align=center;verticalAlign=middle;fontStyle=1;strokeWidth=3;fillColor=#FFFFCC" vertex="1" parent="1">
          <mxGeometry x="40" y="530" width="90" height="60" as="geometry" />
        </mxCell>
        <mxCell id="vn03d7-LU0J96A6AL0O_-104" value="" style="edgeStyle=none;noEdgeStyle=1;strokeColor=#026799;strokeWidth=2" edge="1" parent="1" source="vn03d7-LU0J96A6AL0O_-103" target="vn03d7-LU0J96A6AL0O_-102">
          <mxGeometry width="100" height="100" relative="1" as="geometry">
            <mxPoint x="280" y="469" as="sourcePoint" />
            <mxPoint x="380" y="369" as="targetPoint" />
          </mxGeometry>
        </mxCell>
        <mxCell id="vn03d7-LU0J96A6AL0O_-105" value="Capteur in situ 2" style="whiteSpace=wrap;align=center;verticalAlign=middle;fontStyle=1;strokeWidth=3;fillColor=#FFFFCC" vertex="1" parent="1">
          <mxGeometry x="40" y="619" width="90" height="60" as="geometry" />
        </mxCell>
        <mxCell id="vn03d7-LU0J96A6AL0O_-106" value="Capteur in situ 3" style="whiteSpace=wrap;align=center;verticalAlign=middle;fontStyle=1;strokeWidth=3;fillColor=#FFFFCC" vertex="1" parent="1">
          <mxGeometry x="40" y="700" width="90" height="60" as="geometry" />
        </mxCell>
        <mxCell id="vn03d7-LU0J96A6AL0O_-107" value="" style="edgeStyle=none;noEdgeStyle=1;strokeColor=#026799;strokeWidth=2;exitX=1;exitY=0.5;exitDx=0;exitDy=0;" edge="1" parent="1" source="vn03d7-LU0J96A6AL0O_-105" target="vn03d7-LU0J96A6AL0O_-102">
          <mxGeometry width="100" height="100" relative="1" as="geometry">
            <mxPoint x="140" y="586" as="sourcePoint" />
            <mxPoint x="240" y="629" as="targetPoint" />
          </mxGeometry>
        </mxCell>
        <mxCell id="vn03d7-LU0J96A6AL0O_-108" value="" style="edgeStyle=none;noEdgeStyle=1;strokeColor=#026799;strokeWidth=2;exitX=1;exitY=0.5;exitDx=0;exitDy=0;entryX=0;entryY=0.5;entryDx=0;entryDy=0;" edge="1" parent="1" source="vn03d7-LU0J96A6AL0O_-106" target="vn03d7-LU0J96A6AL0O_-102">
          <mxGeometry width="100" height="100" relative="1" as="geometry">
            <mxPoint x="145" y="720" as="sourcePoint" />
            <mxPoint x="261" y="760" as="targetPoint" />
          </mxGeometry>
        </mxCell>
        <mxCell id="vn03d7-LU0J96A6AL0O_-110" value="ChirpStack GW Bridge&#xa;IN865&#xa;" style="shape=process;whiteSpace=wrap;align=center;verticalAlign=middle;size=0.0475;fontStyle=1;strokeWidth=3;fillColor=#FFCCCC" vertex="1" parent="1">
          <mxGeometry x="600" y="650" width="200" height="50" as="geometry" />
        </mxCell>
        <mxCell id="vn03d7-LU0J96A6AL0O_-128" value="&lt;div&gt;MQTT &lt;br&gt;&lt;/div&gt;&lt;div&gt;broker&lt;br&gt;&lt;/div&gt;" style="ellipse;shape=doubleEllipse;whiteSpace=wrap;html=1;fillColor=#fff2cc;strokeColor=#d6b656;" vertex="1" parent="1">
          <mxGeometry x="650" y="446" width="100" height="60" as="geometry" />
        </mxCell>
        <mxCell id="vn03d7-LU0J96A6AL0O_-129" value="&lt;div&gt;MQTT &lt;br&gt;&lt;/div&gt;&lt;div&gt;broker&lt;br&gt;&lt;/div&gt;" style="ellipse;shape=doubleEllipse;whiteSpace=wrap;html=1;fillColor=#fff2cc;strokeColor=#d6b656;" vertex="1" parent="1">
          <mxGeometry x="650" y="545" width="100" height="60" as="geometry" />
        </mxCell>
        <mxCell id="vn03d7-LU0J96A6AL0O_-130" value="Chirpstack network server&#xa;" style="shape=process;whiteSpace=wrap;align=center;verticalAlign=middle;size=0.0475;fontStyle=1;strokeWidth=3;fillColor=#dae8fc;strokeColor=#6c8ebf;" vertex="1" parent="1">
          <mxGeometry x="840" y="490" width="200" height="50" as="geometry" />
        </mxCell>
        <mxCell id="vn03d7-LU0J96A6AL0O_-132" value="UDP&#xa;" style="edgeStyle=none;noEdgeStyle=1;strokeColor=#990000;strokeWidth=2;exitX=1;exitY=0.5;exitDx=0;exitDy=0;entryX=0;entryY=0.5;entryDx=0;entryDy=0;" edge="1" parent="1" source="2" target="5">
          <mxGeometry width="100" height="100" relative="1" as="geometry">
            <mxPoint x="337" y="380" as="sourcePoint" />
            <mxPoint x="428" y="384" as="targetPoint" />
          </mxGeometry>
        </mxCell>
        <mxCell id="vn03d7-LU0J96A6AL0O_-133" value="UDP&#xa;" style="edgeStyle=none;noEdgeStyle=1;strokeColor=#990000;strokeWidth=2;exitX=1;exitY=0.5;exitDx=0;exitDy=0;entryX=0;entryY=0.5;entryDx=0;entryDy=0;" edge="1" parent="1" source="vn03d7-LU0J96A6AL0O_-102" target="vn03d7-LU0J96A6AL0O_-110">
          <mxGeometry width="100" height="100" relative="1" as="geometry">
            <mxPoint x="360" y="619" as="sourcePoint" />
            <mxPoint x="629" y="619" as="targetPoint" />
          </mxGeometry>
        </mxCell>
        <mxCell id="vn03d7-LU0J96A6AL0O_-134" value="" style="endArrow=classic;html=1;rounded=0;exitX=1;exitY=0.5;exitDx=0;exitDy=0;entryX=0;entryY=0.5;entryDx=0;entryDy=0;strokeColor=#990000;strokeWidth=2;" edge="1" parent="1" source="vn03d7-LU0J96A6AL0O_-102" target="vn03d7-LU0J96A6AL0O_-129">
          <mxGeometry width="50" height="50" relative="1" as="geometry">
            <mxPoint x="370" y="530" as="sourcePoint" />
            <mxPoint x="420" y="480" as="targetPoint" />
          </mxGeometry>
        </mxCell>
        <mxCell id="vn03d7-LU0J96A6AL0O_-148" value="MQTT" style="edgeLabel;html=1;align=center;verticalAlign=middle;resizable=0;points=[];" vertex="1" connectable="0" parent="vn03d7-LU0J96A6AL0O_-134">
          <mxGeometry x="0.0192" y="2" relative="1" as="geometry">
            <mxPoint x="-13" y="-7" as="offset" />
          </mxGeometry>
        </mxCell>
        <mxCell id="vn03d7-LU0J96A6AL0O_-135" value="" style="endArrow=classic;html=1;rounded=0;exitX=1;exitY=0.5;exitDx=0;exitDy=0;entryX=0.008;entryY=0.35;entryDx=0;entryDy=0;entryPerimeter=0;strokeWidth=2;strokeColor=#990000;" edge="1" parent="1" source="2" target="vn03d7-LU0J96A6AL0O_-128">
          <mxGeometry width="50" height="50" relative="1" as="geometry">
            <mxPoint x="370" y="530" as="sourcePoint" />
            <mxPoint x="420" y="480" as="targetPoint" />
          </mxGeometry>
        </mxCell>
        <mxCell id="vn03d7-LU0J96A6AL0O_-147" value="MQTT" style="edgeLabel;html=1;align=center;verticalAlign=middle;resizable=0;points=[];" vertex="1" connectable="0" parent="vn03d7-LU0J96A6AL0O_-135">
          <mxGeometry x="-0.0506" y="4" relative="1" as="geometry">
            <mxPoint y="-15" as="offset" />
          </mxGeometry>
        </mxCell>
        <mxCell id="vn03d7-LU0J96A6AL0O_-138" value="" style="endArrow=classic;html=1;rounded=0;exitX=0.5;exitY=0;exitDx=0;exitDy=0;entryX=0.5;entryY=1;entryDx=0;entryDy=0;" edge="1" parent="1" source="vn03d7-LU0J96A6AL0O_-110" target="vn03d7-LU0J96A6AL0O_-129">
          <mxGeometry width="50" height="50" relative="1" as="geometry">
            <mxPoint x="720" y="640" as="sourcePoint" />
            <mxPoint x="770" y="585" as="targetPoint" />
          </mxGeometry>
        </mxCell>
        <mxCell id="vn03d7-LU0J96A6AL0O_-139" value="" style="endArrow=classic;html=1;rounded=0;exitX=0.5;exitY=1;exitDx=0;exitDy=0;entryX=0.5;entryY=0;entryDx=0;entryDy=0;" edge="1" parent="1" source="5" target="vn03d7-LU0J96A6AL0O_-128">
          <mxGeometry width="50" height="50" relative="1" as="geometry">
            <mxPoint x="720" y="660" as="sourcePoint" />
            <mxPoint x="700" y="610" as="targetPoint" />
          </mxGeometry>
        </mxCell>
        <mxCell id="vn03d7-LU0J96A6AL0O_-140" value="" style="endArrow=classic;html=1;rounded=0;exitX=1;exitY=0.5;exitDx=0;exitDy=0;entryX=0;entryY=0.75;entryDx=0;entryDy=0;" edge="1" parent="1" source="vn03d7-LU0J96A6AL0O_-129" target="vn03d7-LU0J96A6AL0O_-130">
          <mxGeometry width="50" height="50" relative="1" as="geometry">
            <mxPoint x="820" y="630" as="sourcePoint" />
            <mxPoint x="870" y="580" as="targetPoint" />
          </mxGeometry>
        </mxCell>
        <mxCell id="vn03d7-LU0J96A6AL0O_-141" value="" style="endArrow=classic;html=1;rounded=0;exitX=1.017;exitY=0.597;exitDx=0;exitDy=0;entryX=0;entryY=0.5;entryDx=0;entryDy=0;exitPerimeter=0;" edge="1" parent="1" source="vn03d7-LU0J96A6AL0O_-128" target="vn03d7-LU0J96A6AL0O_-130">
          <mxGeometry width="50" height="50" relative="1" as="geometry">
            <mxPoint x="760" y="585" as="sourcePoint" />
            <mxPoint x="850" y="538" as="targetPoint" />
          </mxGeometry>
        </mxCell>
        <mxCell id="vn03d7-LU0J96A6AL0O_-142" value="" style="endArrow=none;dashed=1;html=1;dashPattern=1 3;strokeWidth=2;rounded=0;" edge="1" parent="1">
          <mxGeometry width="50" height="50" relative="1" as="geometry">
            <mxPoint x="190" y="860" as="sourcePoint" />
            <mxPoint x="190" y="190" as="targetPoint" />
          </mxGeometry>
        </mxCell>
        <mxCell id="vn03d7-LU0J96A6AL0O_-143" value="" style="endArrow=none;dashed=1;html=1;dashPattern=1 3;strokeWidth=2;rounded=0;" edge="1" parent="1">
          <mxGeometry width="50" height="50" relative="1" as="geometry">
            <mxPoint x="570" y="860" as="sourcePoint" />
            <mxPoint x="570" y="190" as="targetPoint" />
          </mxGeometry>
        </mxCell>
        <mxCell id="vn03d7-LU0J96A6AL0O_-144" value="&lt;font size=&quot;1&quot;&gt;&lt;b style=&quot;font-size: 15px;&quot;&gt;Communication radio&lt;br&gt;&lt;/b&gt;&lt;/font&gt;" style="text;html=1;align=center;verticalAlign=middle;whiteSpace=wrap;rounded=0;" vertex="1" parent="1">
          <mxGeometry x="40" y="790" width="120" height="30" as="geometry" />
        </mxCell>
        <mxCell id="vn03d7-LU0J96A6AL0O_-145" value="&lt;b style=&quot;font-size: 18px;&quot;&gt;Communication Internet&lt;br&gt;&lt;/b&gt;" style="text;html=1;align=center;verticalAlign=middle;whiteSpace=wrap;rounded=0;" vertex="1" parent="1">
          <mxGeometry x="260" y="790" width="110" height="30" as="geometry" />
        </mxCell>
        <mxCell id="vn03d7-LU0J96A6AL0O_-146" value="&lt;font style=&quot;font-size: 14px;&quot;&gt;&lt;b&gt;Communication Cloud&lt;/b&gt;&lt;br&gt;&lt;/font&gt;" style="text;html=1;align=center;verticalAlign=middle;whiteSpace=wrap;rounded=0;" vertex="1" parent="1">
          <mxGeometry x="660" y="790" width="60" height="30" as="geometry" />
        </mxCell>
        <mxCell id="vn03d7-LU0J96A6AL0O_-150" value="" style="fontColor=#0066CC;verticalAlign=top;verticalLabelPosition=bottom;labelPosition=center;align=center;html=1;outlineConnect=0;fillColor=#CCCCCC;strokeColor=#6881B3;gradientColor=none;gradientDirection=north;strokeWidth=2;shape=mxgraph.networks.radio_tower;" vertex="1" parent="1">
          <mxGeometry x="230" y="410" width="50" height="60" as="geometry" />
        </mxCell>
        <mxCell id="vn03d7-LU0J96A6AL0O_-151" value="" style="fontColor=#0066CC;verticalAlign=top;verticalLabelPosition=bottom;labelPosition=center;align=center;html=1;outlineConnect=0;fillColor=#CCCCCC;strokeColor=#6881B3;gradientColor=none;gradientDirection=north;strokeWidth=2;shape=mxgraph.networks.radio_tower;" vertex="1" parent="1">
          <mxGeometry x="230" y="679" width="50" height="60" as="geometry" />
        </mxCell>
      </root>
    </mxGraphModel>
  </diagram>
</mxfile>
